<svg data-v-d3f97b9e="" xmlns="http://www.w3.org/2000/svg" viewBox="0 0 235 90"><!----><!----><!----><g data-v-d3f97b9e="" id="9da0d20e-d0d9-4fe9-833d-bae0e500fe6d" fill="#012B3D" transform="matrix(5.434782627474683,0,0,5.434782627474683,122.55387083634915,3.15217279403857)"><path d="M2.42 2.18L2.42 6.09L2.42 6.09Q2.66 5.94 3.14 5.77L3.14 5.77L3.14 5.77Q3.63 5.60 4.26 5.60L4.26 5.60L4.26 5.60Q5.04 5.60 5.65 5.88L5.65 5.88L5.65 5.88Q6.26 6.16 6.68 6.66L6.68 6.66L6.68 6.66Q7.10 7.17 7.32 7.87L7.32 7.87L7.32 7.87Q7.53 8.57 7.53 9.41L7.53 9.41L7.53 9.41Q7.53 10.29 7.27 11.00L7.27 11.00L7.27 11.00Q7.01 11.70 6.54 12.19L6.54 12.19L6.54 12.19Q6.06 12.68 5.39 12.95L5.39 12.95L5.39 12.95Q4.72 13.22 3.88 13.22L3.88 13.22L3.88 13.22Q2.97 13.22 2.27 13.09L2.27 13.09L2.27 13.09Q1.57 12.96 1.12 12.84L1.12 12.84L1.12 2.41L2.42 2.18ZM2.42 7.31L2.42 11.91L2.42 11.91Q2.62 11.97 2.98 12.02L2.98 12.02L2.98 12.02Q3.33 12.07 3.86 12.07L3.86 12.07L3.86 12.07Q4.91 12.07 5.54 11.38L5.54 11.38L5.54 11.38Q6.17 10.68 6.17 9.41L6.17 9.41L6.17 9.41Q6.17 8.85 6.06 8.36L6.06 8.36L6.06 8.36Q5.95 7.87 5.70 7.51L5.70 7.51L5.70 7.51Q5.45 7.15 5.05 6.95L5.05 6.95L5.05 6.95Q4.65 6.75 4.09 6.75L4.09 6.75L4.09 6.75Q3.56 6.75 3.11 6.93L3.11 6.93L3.11 6.93Q2.66 7.11 2.42 7.31L2.42 7.31ZM12.05 5.61L12.05 5.61L12.05 5.61Q12.22 5.61 12.44 5.63L12.44 5.63L12.44 5.63Q12.66 5.66 12.87 5.69L12.87 5.69L12.87 5.69Q13.08 5.73 13.25 5.76L13.25 5.76L13.25 5.76Q13.43 5.80 13.51 5.82L13.51 5.82L13.29 6.96L13.29 6.96Q13.13 6.90 12.78 6.83L12.78 6.83L12.78 6.83Q12.42 6.75 11.86 6.75L11.86 6.75L11.86 6.75Q11.49 6.75 11.14 6.83L11.14 6.83L11.14 6.83Q10.78 6.90 10.67 6.93L10.67 6.93L10.67 13.05L9.37 13.05L9.37 6.08L9.37 6.08Q9.83 5.91 10.51 5.76L10.51 5.76L10.51 5.76Q11.20 5.61 12.05 5.61ZM14.77 13.05L14.77 5.98L14.77 5.98Q15.22 5.87 15.96 5.74L15.96 5.74L15.96 5.74Q16.70 5.61 17.67 5.61L17.67 5.61L17.67 5.61Q18.54 5.61 19.11 5.86L19.11 5.86L19.11 5.86Q19.68 6.10 20.03 6.54L20.03 6.54L20.03 6.54Q20.37 6.99 20.51 7.60L20.51 7.60L20.51 7.60Q20.65 8.22 20.65 8.96L20.65 8.96L20.65 13.05L19.35 13.05L19.35 9.24L19.35 9.24Q19.35 8.57 19.26 8.09L19.26 8.09L19.26 8.09Q19.17 7.62 18.96 7.32L18.96 7.32L18.96 7.32Q18.75 7.03 18.40 6.89L18.40 6.89L18.40 6.89Q18.05 6.76 17.53 6.76L17.53 6.76L17.53 6.76Q17.32 6.76 17.09 6.78L17.09 6.78L17.09 6.78Q16.87 6.79 16.67 6.81L16.67 6.81L16.67 6.81Q16.46 6.83 16.30 6.86L16.30 6.86L16.30 6.86Q16.14 6.89 16.07 6.90L16.07 6.90L16.07 13.05L14.77 13.05Z"/></g><linearGradient data-v-d3f97b9e="" gradientTransform="rotate(25)" id="d8604cf5-a770-4f1a-bb37-23a14bb5601e" x1="0%" y1="0%" x2="100%" y2="0%"><stop data-v-d3f97b9e="" offset="0%" style="stop-color: rgb(0, 118, 221); stop-opacity: 1;"/><stop data-v-d3f97b9e="" offset="100%" style="stop-color: rgb(0, 205, 233); stop-opacity: 1;"/></linearGradient><g data-v-d3f97b9e="" id="62230ac7-45c5-4efb-8295-a604cb82e60c" transform="matrix(1.216322432347911,0,0,1.216322432347911,-6.475998317849566,-15.812840643933797)" stroke="none" fill="url(#d8604cf5-a770-4f1a-bb37-23a14bb5601e)"><path d="M50 13.003c-24.664 0-44.658 19.994-44.658 44.66A44.48 44.48 0 0 0 9.571 76.65c.11.217.234.427.369.63.017.03 11.694 20.411 49.839 2.049 1.898-7.068 7.801-33.461-8.092-39.127-8.403-2.996-16.544-1.414-21.777 4.231-4.766 5.142-6.075 12.447-3.335 18.61 1.765 3.973 4.394 5.933 7.804 5.811 5.646-.193 11.284-5.518 12.053-7.624.736-2.018 1.225-4.817-.633-6.692-1.583-1.599-4.581-2.106-7.128-1.205-1.312.464-3.557 1.685-3.854 4.647a1.747 1.747 0 0 1-1.917 1.565 1.748 1.748 0 0 1-1.565-1.916c.354-3.516 2.661-6.355 6.17-7.597 3.88-1.373 8.214-.552 10.782 2.042 1.422 1.437 3.5 4.692 1.434 10.354-1.366 3.745-8.519 9.693-15.222 9.922-3.422.121-8.13-1.155-11.121-7.886-3.31-7.445-1.752-16.242 3.967-22.411 6.215-6.705 15.755-8.63 25.52-5.149C61.884 40.12 66.393 49.085 65.91 62.83c-.238 6.755-1.604 13.026-2.501 16.498h25.649a44.45 44.45 0 0 0 5.603-21.667C94.658 32.998 74.664 13.003 50 13.003z"/></g><!----></svg>